<?xml version="1.0" encoding="us-ascii" standalone="no"?><svg xmlns="http://www.w3.org/2000/svg" xmlns:xlink="http://www.w3.org/1999/xlink" contentStyleType="text/css" height="248px" preserveAspectRatio="none" style="width:266px;height:248px;background:#FFFFFF;" version="1.1" viewBox="0 0 266 248" width="266px" zoomAndPan="magnify"><defs/><g><ellipse cx="133" cy="20" fill="#222222" rx="10" ry="10" style="stroke:#222222;stroke-width:1.0;"/><rect fill="#FFB6C1" height="35.0938" rx="12.5" ry="12.5" style="stroke:#181818;stroke-width:0.5;" width="119" x="73.5" y="50"/><text fill="#000000" font-family="sans-serif" font-size="12" lengthAdjust="spacing" textLength="99" x="83.5" y="72.457">Sign in via Google</text><rect fill="#FFB6C1" height="35.0938" rx="12.5" ry="12.5" style="stroke:#181818;stroke-width:0.5;" width="241" x="12.5" y="105.0938"/><text fill="#000000" font-family="sans-serif" font-size="12" lengthAdjust="spacing" textLength="221" x="22.5" y="127.5508">Upload statistics information as CSV-file</text><rect fill="#FFB6C1" height="35.0938" rx="12.5" ry="12.5" style="stroke:#181818;stroke-width:0.5;" width="244" x="11" y="160.1875"/><text fill="#000000" font-family="sans-serif" font-size="12" lengthAdjust="spacing" textLength="224" x="21" y="182.6445">Set caption and source of the information</text><ellipse cx="133" cy="226.2813" fill="none" rx="11" ry="11" style="stroke:#222222;stroke-width:1.0;"/><ellipse cx="133" cy="226.2813" fill="#222222" rx="6" ry="6" style="stroke:#222222;stroke-width:1.0;"/><line style="stroke:#181818;stroke-width:1.0;" x1="133" x2="133" y1="30" y2="50"/><polygon fill="#181818" points="129,40,133,50,137,40,133,44" style="stroke:#181818;stroke-width:1.0;"/><line style="stroke:#181818;stroke-width:1.0;" x1="133" x2="133" y1="85.0938" y2="105.0938"/><polygon fill="#181818" points="129,95.0938,133,105.0938,137,95.0938,133,99.0938" style="stroke:#181818;stroke-width:1.0;"/><line style="stroke:#181818;stroke-width:1.0;" x1="133" x2="133" y1="140.1875" y2="160.1875"/><polygon fill="#181818" points="129,150.1875,133,160.1875,137,150.1875,133,154.1875" style="stroke:#181818;stroke-width:1.0;"/><line style="stroke:#181818;stroke-width:1.0;" x1="133" x2="133" y1="195.2813" y2="215.2813"/><polygon fill="#181818" points="129,205.2813,133,215.2813,137,205.2813,133,209.2813" style="stroke:#181818;stroke-width:1.0;"/><!--SRC=[NOon3SCm30HxJq70THQ8InSPG4XwGfPa8WefYE_C7m5kZ9IFkti7TqnpbRAZYRxlGOgIA7s5wM5MQbgk-DcgyKOEXZWa-d2pzS-OfiHEQtZTilnL8O4YjzFHaTlHOoBBX3rT7vR9OUq7]--></g></svg>