<?xml version="1.0" encoding="us-ascii" standalone="no"?><svg xmlns="http://www.w3.org/2000/svg" xmlns:xlink="http://www.w3.org/1999/xlink" contentStyleType="text/css" height="193px" preserveAspectRatio="none" style="width:104px;height:193px;background:#FFFFFF;" version="1.1" viewBox="0 0 104 193" width="104px" zoomAndPan="magnify"><defs/><g><ellipse cx="52" cy="20" fill="#222222" rx="10" ry="10" style="stroke:#222222;stroke-width:1.0;"/><rect fill="#F1F1F1" height="35.0938" rx="12.5" ry="12.5" style="stroke:#181818;stroke-width:0.5;" width="82" x="11" y="50"/><text fill="#000000" font-family="sans-serif" font-size="12" lengthAdjust="spacing" textLength="62" x="21" y="72.457">Pure action</text><rect fill="#FFB6C1" height="35.0938" rx="12.5" ry="12.5" style="stroke:#181818;stroke-width:0.5;" width="80" x="12" y="105.0938"/><text fill="#000000" font-family="sans-serif" font-size="12" lengthAdjust="spacing" textLength="60" x="22" y="127.5508">Dirty action</text><ellipse cx="52" cy="171.1875" fill="none" rx="11" ry="11" style="stroke:#222222;stroke-width:1.0;"/><ellipse cx="52" cy="171.1875" fill="#222222" rx="6" ry="6" style="stroke:#222222;stroke-width:1.0;"/><line style="stroke:#181818;stroke-width:1.0;" x1="52" x2="52" y1="30" y2="50"/><polygon fill="#181818" points="48,40,52,50,56,40,52,44" style="stroke:#181818;stroke-width:1.0;"/><line style="stroke:#181818;stroke-width:1.0;" x1="52" x2="52" y1="85.0938" y2="105.0938"/><polygon fill="#181818" points="48,95.0938,52,105.0938,56,95.0938,52,99.0938" style="stroke:#181818;stroke-width:1.0;"/><line style="stroke:#181818;stroke-width:1.0;" x1="52" x2="52" y1="140.1875" y2="160.1875"/><polygon fill="#181818" points="48,150.1875,52,160.1875,56,150.1875,52,154.1875" style="stroke:#181818;stroke-width:1.0;"/><!--SRC=[Aov9B2hXiWeeBKfLI4mkoSpFi-PIpibCpoWfoCpBjdB9B2gfX4iKb-GN0000]--></g></svg>