<?xml version="1.0" encoding="us-ascii" standalone="no"?><svg xmlns="http://www.w3.org/2000/svg" xmlns:xlink="http://www.w3.org/1999/xlink" contentStyleType="text/css" height="503px" preserveAspectRatio="none" style="width:689px;height:503px;background:#FFFFFF;" version="1.1" viewBox="0 0 689 503" width="689px" zoomAndPan="magnify"><defs/><g><!--cluster Users--><g id="cluster_Users"><path d="M52.4874,40.3293 C57.4032,28.3356 68.9845,25.463 76.5753,37.6663 C82.9716,26.4152 92.2991,25.2412 100.4992,35.6764 C106.9214,25.6342 113.0803,25.4601 120.4051,34.7469 C127.6287,23.2556 135.0268,24.0857 143.5433,33.3021 C149.2378,20.7297 159.7024,19.4644 166.9985,31.7937 C175.4578,21.467 184.2257,22.5303 191.0816,33.5986 C196.8392,20.7422 204.4453,20.6142 213.383,30.4771 C221.5755,20.5581 230.7286,22.0156 235.8005,33.7133 C242.1852,20.789 254.087,20.8405 261.7238,32.3869 C269.0636,22.3932 279.3876,24.2821 284.3491,34.9866 C291.0324,23.9352 299.8037,21.8727 307.6337,33.826 C315.1014,22.0732 325.8277,22.8306 332.5918,34.5733 C341.4565,25.0572 349.8431,26.8617 353.5182,39.4797 C364.7633,28.057 373.8717,30.5916 381.9259,43.2448 C384.0184,43.5573 384.8021,44.5898 383.5106,46.5331 C406.1559,55.9285 403.7998,74.9555 387.0162,87.7078 C410.5256,109.0231 399.9999,128.5524 374.9259,138.2448 C377.91,137.7801 379.6893,138.8826 378.8459,142.2058 C372.3819,154.345 360.481,154.6858 353.7182,142.5146 C346.8813,153.3966 336.2905,149.865 331.5489,140.2484 C325.1668,155.6877 316.3239,153.9421 305.6058,144.8303 C298.1612,155.2976 289.7679,154.3931 282.4974,144.6315 C276.2075,157.4351 265.9755,154.8802 259.1425,145.1955 C254.7314,153.9171 245.2406,157.354 238.8103,147.393 C230.5618,159.2831 223.185,157.5786 214.884,147.45 C206.7979,159.6711 197.0663,158.6495 191.2412,145.3549 C182.8088,156.5074 174.7786,153.9925 168.778,142.8993 C162.2562,152.111 153.008,154.3344 146.6165,142.7605 C140.088,152.0288 130.0787,152.7649 123.8169,142.45 C118.3504,156.1173 106.0129,156.5698 98.7579,144.1693 C91.2901,154.701 82.1351,154.964 76.5345,142.3746 C61.7151,153.3432 48.5367,148.0834 42.9259,131.2448 C45.0096,131.1626 45.4765,132.1798 44.8747,133.9983 C33.0299,127.8604 31.1827,117.6035 42.9134,109.5725 C32.4178,106.8353 26.7665,98.6907 35.6266,89.0732 C26.4281,79.9224 30.1763,69.3659 42.5341,66.9436 C31.6131,55.4746 34.3801,41.341 49.9259,36.2448 C52.8192,36.3365 53.4901,37.7943 52.4874,40.3293 " fill="none" style="stroke:#181818;stroke-width:1.0;"/><text fill="#000000" font-family="sans-serif" font-size="14" font-weight="bold" lengthAdjust="spacing" textLength="41" x="191.9259" y="55.778">Users</text></g><!--cluster Sources--><g id="cluster_Sources"><path d="M473.8598,215.3513 C477.7413,207.6609 484.8295,205.7878 490.5054,213.3994 C494.0844,205.1314 501.3913,205.8412 506.0087,212.3067 C510.4178,205.2059 517.3778,205.4562 521.1762,212.9417 C526.7057,206.0916 531.6138,206.1568 537.4407,212.5772 C542.1519,206.19 548.3783,205.9817 553.1724,212.476 C558.0058,205.1882 562.7964,204.1665 568.5095,211.5567 C572.6991,205.4816 578.6409,205.6629 582.9489,211.4121 C588.5667,204.6433 594.0943,205.6812 598.7736,212.5049 C604.9866,205.4616 610.957,204.7118 616.1775,213.5899 C619.531,205.5685 626.5433,206.7905 630.8814,212.5384 C637.1681,205.5614 641.9749,206.5387 645.4321,215.1753 C654.6254,206.1918 663.271,209.0907 667.9259,220.2448 C669.2031,220.5127 669.3956,221.2059 668.8538,222.2965 C675.9474,225.0023 679.3946,231.5957 672.3859,237.5639 C681.4821,240.6218 680.8747,245.4493 675.9372,251.9674 C682.2541,255.5384 682.6944,261.2093 677.3258,265.9415 C682.31,271.3173 682.7861,277.8604 674.1526,280.2071 C681.6047,284.5628 679.4223,291.387 673.2022,294.8556 C677.8269,306.3138 673.1685,313.9423 660.9259,315.2448 C661.7602,313.8379 662.8321,314.0194 663.5741,315.3345 C658.6875,323.6834 653.2474,324.8715 645.9808,318.1046 C642.9573,325.687 636.5946,326.4475 631.981,319.653 C627.2727,327.2161 618.9038,328.3901 614.5784,319.254 C610.4546,328.4382 605.3624,328.843 598.8303,321.5567 C594.3115,329.8316 589.8768,329.8632 584.2637,322.5813 C580.8399,331.3284 573.6941,332.3747 567.7262,325.2286 C561.3571,332.7613 555.0089,330.8779 551.5114,322.3325 C547.1806,328.66 542.2581,329.5302 538.1203,322.144 C531.8714,329.3855 526.1168,330.5696 520.2006,321.7724 C514.2485,328.8583 507.4936,325.9901 505.1629,318.1291 C499.6929,324.9812 494.9048,324.7448 490.7197,316.8691 C480.2667,325.1948 468.8329,321.6126 465.9259,308.2448 C467.016,308.3322 467.4436,308.7849 467.0929,309.8927 C459.0241,306.0283 458.051,301.0755 464.5019,294.73 C457.9438,292.0873 456.6999,285.7581 462.0929,281.0161 C453.7652,277.8337 451.6274,271.4551 458.696,265.0059 C451.7897,259.0713 453.2045,254.3397 460.9823,250.762 C456.3334,244.9342 456.3427,239.9322 464.4018,237.3426 C453.4705,226.6395 459.2439,215.2415 472.9259,213.2448 C474.2968,213.2794 474.6917,214.3401 473.8598,215.3513 " fill="none" style="stroke:#181818;stroke-width:1.0;"/><text fill="#000000" font-family="sans-serif" font-size="14" font-weight="bold" lengthAdjust="spacing" textLength="58" x="537.9259" y="232.778">Sources</text></g><!--cluster Discussion--><g id="cluster_Discussion"><path d="M430.717,20.6771 C433.4478,14.4305 439.7337,12.5167 443.9103,19.2021 C447.5697,12.1048 451.8477,11.6438 456.6184,18.1652 C458.9549,10.7258 463.8891,10.5014 469.1926,15.0541 C472.2628,10.4007 477.2034,9.7515 480.4045,14.9043 C484.3507,8.9671 488.3876,8.3662 493.4537,13.5956 C496.8879,7.1162 503.5332,7.0433 507.6147,12.8496 C512.3615,6.9412 516.5759,7.8676 520.7562,13.495 C524.8011,9.1565 528.3481,8.2932 531.923,14.0167 C536.7772,7.9125 542.2873,8.4205 545.8112,15.4259 C550.6376,9.6683 554.3292,10.4045 558.1285,16.4936 C563.6402,12.4218 568.0516,11.8929 570.5623,19.6485 C580.3242,11.93 586.4185,13.5972 589.9259,25.7448 C591.1714,25.7601 591.4631,26.3169 591.024,27.4299 C596.7498,30.7162 598.461,35.6029 591.981,39.831 C598.228,42.4779 597.3207,46.3343 593.5543,50.463 C600.4189,53.9773 601.3571,58.2515 595.5622,63.6879 C601.9191,66.9244 602.7149,71.5761 596.5148,75.8001 C603.9715,77.1731 604.8008,83.1482 599.8157,87.912 C605.101,93.1306 603.7364,97.7749 596.8821,100.0625 C602.3946,103.6611 603.4108,109.472 596.6057,112.8035 C602.5527,117.5509 601.7747,123.2768 594.349,125.6808 C599.152,129.0385 598.7007,134.8513 593.3587,137.3479 C599.377,148.1861 595.1299,155.2403 582.9259,155.7448 C583.9832,156.1673 584.0473,156.8227 583.252,157.5753 C579.617,162.372 576.0661,162.5597 572.351,157.6654 C569.5854,165.7094 563.1304,166.9168 557.9319,160.0122 C553.7519,165.5445 549.9064,165.0813 546.5611,159.182 C542.9336,166.8964 537.7377,167.127 532.1209,161.3038 C529.9651,167.991 524.3826,169.5461 519.8241,163.6521 C515.4454,169.7953 509.8353,168.8675 506.3067,162.7173 C503.5566,168.3303 498.2169,168.1692 494.8185,163.4372 C488.6337,169.5141 484.0892,168.1599 480.4874,160.7021 C476.7818,166.0919 473.0442,166.6227 469.1054,160.9418 C464.3844,166.0808 457.5696,166.5824 455.138,158.5196 C452.0117,164.224 447.2942,164.0128 443.6958,159.0248 C433.3163,165.3589 422.4656,163.2484 421.9259,148.7448 C423.4983,148.665 424.2782,149.1985 423.7407,150.8975 C416.7289,147.9363 416.1633,141.0339 422.2598,136.7049 C416.9173,133.158 415.9807,128.8144 421.7084,124.7567 C415.6494,120.7714 416.6896,116.0233 422.4618,112.7824 C416.6996,109.2936 416.2134,105.5543 421.8743,101.4721 C415.1283,97.9266 415.0557,93.1731 420.7364,88.5347 C414.7226,84.7439 414.7931,79.1926 421.5031,76.1922 C415.9122,72.4121 415.2687,66.8331 421.3059,62.8807 C415.6443,59.443 416.2731,54.4272 421.6917,51.3606 C415.1324,46.8132 414.9467,42.5832 422.0859,38.4542 C414.6384,28.4599 417.8957,22.3266 428.9259,18.7448 C430.3511,18.3961 431.053,19.3934 430.717,20.6771 " fill="none" style="stroke:#181818;stroke-width:1.0;"/><text fill="#000000" font-family="sans-serif" font-size="14" font-weight="bold" lengthAdjust="spacing" textLength="77" x="467.4259" y="38.278">Discussion</text></g><!--cluster StatisticsData--><g id="cluster_StatisticsData"><path d="M36.5664,197.9049 C44.8913,184.1895 52.9348,184.9104 62.1213,197.0535 C68.771,183.5639 81.9754,182.5009 89.4984,196.1733 C100.425,182.5207 110.6857,185.1659 117.8998,199.8891 C125.94,186.675 136.9627,186.3923 145.5594,199.2998 C152.3232,184.9415 166.106,187.0962 173.6937,198.3965 C180.6341,184.1798 192.2131,182.9168 201.6354,195.8413 C209.2332,185.4499 221.4056,186.0361 227.6623,197.4426 C237.0464,185.0163 246.7023,185.5488 253.6271,199.8331 C262.3227,186.482 272.186,187.1084 281.8714,198.7127 C292.1988,184.9502 301.2795,186.2609 310.9259,199.4469 C317.8903,185.8873 330.2398,185.0183 340.0344,196.104 C349.9505,186.5667 359.0773,187.2855 366.1935,199.4752 C373.3606,187.3775 385.1401,187.9819 391.8207,199.9924 C403.0419,186.3592 417.1076,186.6047 425.9259,202.7448 C427.8165,201.1039 429.632,201.1754 430.355,203.9231 C442.4616,213.2131 442.2311,224.1208 428.3501,231.5229 C444.102,236.2845 444.8726,249.5176 433.1465,259.0645 C442.2135,265.974 443.0589,277.2328 431.5433,282.749 C446.1237,290.4676 446.6833,300.7174 436.2507,312.4062 C450.5637,320.4392 451.3627,331.0653 437.9887,340.7935 C446.4947,350.5559 443.3716,359.6252 432.053,364.4037 C444.3703,373.3914 445.6744,384.6649 432.0709,393.6685 C441.9031,400.4911 443.182,409.3772 431.4876,415.6279 C446.5811,426.3672 444.232,438.5757 428.7323,446.5927 C437.9592,459.3962 435.006,471.4542 418.9259,475.7448 C421.9617,474.6173 424.2772,475.7472 423.8252,479.3541 C413.7414,491.6391 402.0762,492.9044 392.9712,478.2338 C384.8941,488.6336 377.6026,491.8356 368.9443,478.8305 C361.4186,491.6966 350.8536,492.6315 341.2973,481.1347 C332.2251,494.2926 319.9387,494.661 312.3696,479.5941 C302.8339,492.1149 291.8125,496.3184 281.7262,480.1828 C273.3232,494.3442 263.5406,494.7532 254.7192,480.5816 C247.2411,492.8059 235.8965,492.4491 227.7165,481.396 C220.6183,494.1334 207.8322,493.1484 201.726,480.385 C190.1805,492.2065 179.8382,490.6412 171.0335,477.0719 C164.4468,489.4977 153.3008,488.8573 146.704,477.0821 C140.0866,490.0903 128.4666,491.9393 119.716,479.3294 C109.7912,491.7859 96.6482,493.7681 88.9119,477.021 C80.0202,489.5914 69.1365,489.8414 60.7546,476.4677 C45.89,490.4448 34.0491,485.1696 25.9259,468.7448 C26.6505,468.1205 27.18,468.3975 27.3931,469.2523 C14.7047,462.0457 15.4165,454.0461 25.3801,444.9623 C12.316,438.5841 11.9833,430.0865 21.8232,420.3926 C6.7633,412.0174 7.3076,400.1363 19.8723,389.9886 C8.9406,384.2032 6.5847,372.2647 18.2212,364.9889 C6.5722,358.0929 7.2271,345.0853 18.602,338.5205 C6,329.2577 7.6447,321.2996 20.6087,314.1412 C7.2401,304.64 8.3445,293.911 22.0272,285.762 C8.683,277.4432 10.4136,265.1648 23.953,258.7636 C10.0021,248.7804 13.4189,240.305 25.0959,231.3918 C12.8238,217.318 14.3747,203.0481 32.9259,195.7448 C34.8798,194.6944 36.7012,195.4351 36.5664,197.9049 " fill="none" style="stroke:#181818;stroke-width:1.0;"/><text fill="#000000" font-family="sans-serif" font-size="14" font-weight="bold" lengthAdjust="spacing" textLength="95" x="178.4259" y="215.278">StatisticsData</text></g><!--class UserRating--><g id="elem_UserRating"><rect codeLine="405" fill="#F1F1F1" height="65.6094" id="UserRating" rx="2.5" ry="2.5" style="stroke:#181818;stroke-width:0.5;" width="102" x="50.9259" y="64.2448"/><ellipse cx="65.9259" cy="80.2448" fill="#ADD1B2" rx="11" ry="11" style="stroke:#181818;stroke-width:1.0;"/><path d="M64.7853,81.0416 L64.7853,83.5416 L69.1134,83.5416 L69.1134,82.6198 Q69.1134,82.0104 69.3556,81.7448 Q69.5978,81.4791 69.9728,81.4791 Q70.3478,81.4791 70.5822,81.7448 Q70.8165,82.0104 70.8165,82.6198 L70.8165,85.2448 L62.8165,85.2448 Q62.1915,85.2448 61.9337,85.0104 Q61.6759,84.776 61.6759,84.3854 Q61.6759,84.0104 61.9415,83.776 Q62.2072,83.5416 62.8165,83.5416 L63.0822,83.5416 L63.0822,76.8854 L62.8165,76.8854 Q62.1915,76.8854 61.9337,76.651 Q61.6759,76.4166 61.6759,76.026 Q61.6759,75.651 61.9337,75.4166 Q62.1915,75.1823 62.8165,75.1823 L70.4415,75.1823 L70.4415,77.776 Q70.4415,78.3854 70.215,78.6432 Q69.9884,78.901 69.5978,78.901 Q69.2228,78.901 68.9884,78.6432 Q68.754,78.3854 68.754,77.776 L68.754,76.8854 L64.7853,76.8854 L64.7853,79.3385 L66.2697,79.3385 Q66.2697,78.6823 66.3947,78.4948 Q66.6603,78.0885 67.129,78.0885 Q67.504,78.0885 67.7384,78.3463 Q67.9728,78.6041 67.9728,79.2135 L67.9728,81.1823 Q67.9728,81.7291 67.8478,81.9166 Q67.5822,82.3073 67.129,82.3073 Q66.6603,82.3073 66.3947,81.901 Q66.2697,81.7135 66.2697,81.0416 L64.7853,81.0416 Z " fill="#000000"/><text fill="#000000" font-family="sans-serif" font-size="14" lengthAdjust="spacing" textLength="70" x="79.9259" y="85.9733">UserRating</text><line style="stroke:#181818;stroke-width:0.5;" x1="51.9259" x2="151.9259" y1="96.2448" y2="96.2448"/><text fill="#000000" font-family="sans-serif" font-size="14" lengthAdjust="spacing" textLength="60" x="56.9259" y="114.778">int Rating</text><line style="stroke:#181818;stroke-width:0.5;" x1="51.9259" x2="151.9259" y1="121.8541" y2="121.8541"/></g><!--class User--><g id="elem_User"><rect codeLine="408" fill="#F1F1F1" height="65.6094" id="User" rx="2.5" ry="2.5" style="stroke:#181818;stroke-width:0.5;" width="185" x="188.4259" y="64.2448"/><ellipse cx="262.1759" cy="80.2448" fill="#ADD1B2" rx="11" ry="11" style="stroke:#181818;stroke-width:1.0;"/><path d="M261.0353,81.0416 L261.0353,83.5416 L265.3634,83.5416 L265.3634,82.6198 Q265.3634,82.0104 265.6056,81.7448 Q265.8478,81.4791 266.2228,81.4791 Q266.5978,81.4791 266.8322,81.7448 Q267.0665,82.0104 267.0665,82.6198 L267.0665,85.2448 L259.0665,85.2448 Q258.4415,85.2448 258.1837,85.0104 Q257.9259,84.776 257.9259,84.3854 Q257.9259,84.0104 258.1915,83.776 Q258.4572,83.5416 259.0665,83.5416 L259.3322,83.5416 L259.3322,76.8854 L259.0665,76.8854 Q258.4415,76.8854 258.1837,76.651 Q257.9259,76.4166 257.9259,76.026 Q257.9259,75.651 258.1837,75.4166 Q258.4415,75.1823 259.0665,75.1823 L266.6915,75.1823 L266.6915,77.776 Q266.6915,78.3854 266.465,78.6432 Q266.2384,78.901 265.8478,78.901 Q265.4728,78.901 265.2384,78.6432 Q265.004,78.3854 265.004,77.776 L265.004,76.8854 L261.0353,76.8854 L261.0353,79.3385 L262.5197,79.3385 Q262.5197,78.6823 262.6447,78.4948 Q262.9103,78.0885 263.379,78.0885 Q263.754,78.0885 263.9884,78.3463 Q264.2228,78.6041 264.2228,79.2135 L264.2228,81.1823 Q264.2228,81.7291 264.0978,81.9166 Q263.8322,82.3073 263.379,82.3073 Q262.9103,82.3073 262.6447,81.901 Q262.5197,81.7135 262.5197,81.0416 L261.0353,81.0416 Z " fill="#000000"/><text fill="#000000" font-family="sans-serif" font-size="14" lengthAdjust="spacing" textLength="29" x="282.6759" y="85.9733">User</text><line style="stroke:#181818;stroke-width:0.5;" x1="189.4259" x2="372.4259" y1="96.2448" y2="96.2448"/><text fill="#000000" font-family="sans-serif" font-size="14" lengthAdjust="spacing" textLength="173" x="194.4259" y="114.778">string UserFriendlyIdentifier</text><line style="stroke:#181818;stroke-width:0.5;" x1="189.4259" x2="372.4259" y1="121.8541" y2="121.8541"/></g><!--class Source--><g id="elem_Source"><rect codeLine="413" fill="#F1F1F1" height="65.6094" id="Source" rx="2.5" ry="2.5" style="stroke:#181818;stroke-width:0.5;" width="185" x="474.4259" y="241.2448"/><ellipse cx="540.1759" cy="257.2448" fill="#ADD1B2" rx="11" ry="11" style="stroke:#181818;stroke-width:1.0;"/><path d="M539.0353,258.0416 L539.0353,260.5416 L543.3634,260.5416 L543.3634,259.6198 Q543.3634,259.0104 543.6056,258.7448 Q543.8478,258.4791 544.2228,258.4791 Q544.5978,258.4791 544.8322,258.7448 Q545.0665,259.0104 545.0665,259.6198 L545.0665,262.2448 L537.0665,262.2448 Q536.4415,262.2448 536.1837,262.0104 Q535.9259,261.776 535.9259,261.3854 Q535.9259,261.0104 536.1915,260.776 Q536.4572,260.5416 537.0665,260.5416 L537.3322,260.5416 L537.3322,253.8854 L537.0665,253.8854 Q536.4415,253.8854 536.1837,253.651 Q535.9259,253.4166 535.9259,253.026 Q535.9259,252.651 536.1837,252.4166 Q536.4415,252.1823 537.0665,252.1823 L544.6915,252.1823 L544.6915,254.776 Q544.6915,255.3854 544.465,255.6432 Q544.2384,255.901 543.8478,255.901 Q543.4728,255.901 543.2384,255.6432 Q543.004,255.3854 543.004,254.776 L543.004,253.8854 L539.0353,253.8854 L539.0353,256.3385 L540.5197,256.3385 Q540.5197,255.6823 540.6447,255.4948 Q540.9103,255.0885 541.379,255.0885 Q541.754,255.0885 541.9884,255.3463 Q542.2228,255.6041 542.2228,256.2135 L542.2228,258.1823 Q542.2228,258.7291 542.0978,258.9166 Q541.8322,259.3073 541.379,259.3073 Q540.9103,259.3073 540.6447,258.901 Q540.5197,258.7135 540.5197,258.0416 L539.0353,258.0416 Z " fill="#000000"/><text fill="#000000" font-family="sans-serif" font-size="14" lengthAdjust="spacing" textLength="45" x="560.6759" y="262.9733">Source</text><line style="stroke:#181818;stroke-width:0.5;" x1="475.4259" x2="658.4259" y1="273.2448" y2="273.2448"/><text fill="#000000" font-family="sans-serif" font-size="14" lengthAdjust="spacing" textLength="173" x="480.4259" y="291.778">string UserFriendlyIdentifier</text><line style="stroke:#181818;stroke-width:0.5;" x1="475.4259" x2="658.4259" y1="298.8541" y2="298.8541"/></g><!--class StatisticsRating--><g id="elem_StatisticsRating"><rect codeLine="418" fill="#F1F1F1" height="100.8281" id="StatisticsRating" rx="2.5" ry="2.5" style="stroke:#181818;stroke-width:0.5;" width="151" x="430.4259" y="46.7448"/><ellipse cx="455.3259" cy="62.7448" fill="#ADD1B2" rx="11" ry="11" style="stroke:#181818;stroke-width:1.0;"/><path d="M454.1853,63.5416 L454.1853,66.0416 L458.5134,66.0416 L458.5134,65.1198 Q458.5134,64.5104 458.7556,64.2448 Q458.9978,63.9791 459.3728,63.9791 Q459.7478,63.9791 459.9822,64.2448 Q460.2165,64.5104 460.2165,65.1198 L460.2165,67.7448 L452.2165,67.7448 Q451.5915,67.7448 451.3337,67.5104 Q451.0759,67.276 451.0759,66.8854 Q451.0759,66.5104 451.3415,66.276 Q451.6072,66.0416 452.2165,66.0416 L452.4822,66.0416 L452.4822,59.3854 L452.2165,59.3854 Q451.5915,59.3854 451.3337,59.151 Q451.0759,58.9166 451.0759,58.526 Q451.0759,58.151 451.3337,57.9166 Q451.5915,57.6823 452.2165,57.6823 L459.8415,57.6823 L459.8415,60.276 Q459.8415,60.8854 459.615,61.1432 Q459.3884,61.401 458.9978,61.401 Q458.6228,61.401 458.3884,61.1432 Q458.154,60.8854 458.154,60.276 L458.154,59.3854 L454.1853,59.3854 L454.1853,61.8385 L455.6697,61.8385 Q455.6697,61.1823 455.7947,60.9948 Q456.0603,60.5885 456.529,60.5885 Q456.904,60.5885 457.1384,60.8463 Q457.3728,61.1041 457.3728,61.7135 L457.3728,63.6823 Q457.3728,64.2291 457.2478,64.4166 Q456.9822,64.8073 456.529,64.8073 Q456.0603,64.8073 455.7947,64.401 Q455.6697,64.2135 455.6697,63.5416 L454.1853,63.5416 Z " fill="#000000"/><text fill="#000000" font-family="sans-serif" font-size="14" lengthAdjust="spacing" textLength="97" x="471.5259" y="68.4733">StatisticsRating</text><line style="stroke:#181818;stroke-width:0.5;" x1="431.4259" x2="580.4259" y1="78.7448" y2="78.7448"/><text fill="#000000" font-family="sans-serif" font-size="14" lengthAdjust="spacing" textLength="60" x="436.4259" y="97.278">int Rating</text><text fill="#000000" font-family="sans-serif" font-size="14" lengthAdjust="spacing" textLength="99" x="436.4259" y="114.8874">string Comment</text><text fill="#000000" font-family="sans-serif" font-size="14" lengthAdjust="spacing" textLength="139" x="436.4259" y="132.4967">DateTime DatePosted</text><line style="stroke:#181818;stroke-width:0.5;" x1="431.4259" x2="580.4259" y1="139.5729" y2="139.5729"/></g><!--class Statistics--><g id="elem_Statistics"><rect codeLine="425" fill="#F1F1F1" height="100.8281" id="Statistics" rx="2.5" ry="2.5" style="stroke:#181818;stroke-width:0.5;" width="240" x="177.9259" y="223.7448"/><ellipse cx="265.6759" cy="239.7448" fill="#ADD1B2" rx="11" ry="11" style="stroke:#181818;stroke-width:1.0;"/><path d="M264.5353,240.5416 L264.5353,243.0416 L268.8634,243.0416 L268.8634,242.1198 Q268.8634,241.5104 269.1056,241.2448 Q269.3478,240.9791 269.7228,240.9791 Q270.0978,240.9791 270.3322,241.2448 Q270.5665,241.5104 270.5665,242.1198 L270.5665,244.7448 L262.5665,244.7448 Q261.9415,244.7448 261.6837,244.5104 Q261.4259,244.276 261.4259,243.8854 Q261.4259,243.5104 261.6915,243.276 Q261.9572,243.0416 262.5665,243.0416 L262.8322,243.0416 L262.8322,236.3854 L262.5665,236.3854 Q261.9415,236.3854 261.6837,236.151 Q261.4259,235.9166 261.4259,235.526 Q261.4259,235.151 261.6837,234.9166 Q261.9415,234.6823 262.5665,234.6823 L270.1915,234.6823 L270.1915,237.276 Q270.1915,237.8854 269.965,238.1432 Q269.7384,238.401 269.3478,238.401 Q268.9728,238.401 268.7384,238.1432 Q268.504,237.8854 268.504,237.276 L268.504,236.3854 L264.5353,236.3854 L264.5353,238.8385 L266.0197,238.8385 Q266.0197,238.1823 266.1447,237.9948 Q266.4103,237.5885 266.879,237.5885 Q267.254,237.5885 267.4884,237.8463 Q267.7228,238.1041 267.7228,238.7135 L267.7228,240.6823 Q267.7228,241.2291 267.5978,241.4166 Q267.3322,241.8073 266.879,241.8073 Q266.4103,241.8073 266.1447,241.401 Q266.0197,241.2135 266.0197,240.5416 L264.5353,240.5416 Z " fill="#000000"/><text fill="#000000" font-family="sans-serif" font-size="14" lengthAdjust="spacing" textLength="56" x="286.1759" y="245.4733">Statistics</text><line style="stroke:#181818;stroke-width:0.5;" x1="178.9259" x2="416.9259" y1="255.7448" y2="255.7448"/><text fill="#000000" font-family="sans-serif" font-size="14" lengthAdjust="spacing" textLength="88" x="183.9259" y="274.278">string Caption</text><text fill="#000000" font-family="sans-serif" font-size="14" lengthAdjust="spacing" textLength="228" x="183.9259" y="291.8874">string SourceReferenceQualification</text><text fill="#000000" font-family="sans-serif" font-size="14" lengthAdjust="spacing" textLength="155" x="183.9259" y="309.4967">DateTime DateUploaded</text><line style="stroke:#181818;stroke-width:0.5;" x1="178.9259" x2="416.9259" y1="316.5729" y2="316.5729"/></g><!--class StatisticsPoint--><g id="elem_StatisticsPoint"><rect codeLine="430" fill="#F1F1F1" height="83.2188" id="StatisticsPoint" rx="2.5" ry="2.5" style="stroke:#181818;stroke-width:0.5;" width="120" x="33.9259" y="384.7448"/><ellipse cx="48.9259" cy="400.7448" fill="#ADD1B2" rx="11" ry="11" style="stroke:#181818;stroke-width:1.0;"/><path d="M47.7853,401.5416 L47.7853,404.0416 L52.1134,404.0416 L52.1134,403.1198 Q52.1134,402.5104 52.3556,402.2448 Q52.5978,401.9791 52.9728,401.9791 Q53.3478,401.9791 53.5822,402.2448 Q53.8165,402.5104 53.8165,403.1198 L53.8165,405.7448 L45.8165,405.7448 Q45.1915,405.7448 44.9337,405.5104 Q44.6759,405.276 44.6759,404.8854 Q44.6759,404.5104 44.9415,404.276 Q45.2072,404.0416 45.8165,404.0416 L46.0822,404.0416 L46.0822,397.3854 L45.8165,397.3854 Q45.1915,397.3854 44.9337,397.151 Q44.6759,396.9166 44.6759,396.526 Q44.6759,396.151 44.9337,395.9166 Q45.1915,395.6823 45.8165,395.6823 L53.4415,395.6823 L53.4415,398.276 Q53.4415,398.8854 53.215,399.1432 Q52.9884,399.401 52.5978,399.401 Q52.2228,399.401 51.9884,399.1432 Q51.754,398.8854 51.754,398.276 L51.754,397.3854 L47.7853,397.3854 L47.7853,399.8385 L49.2697,399.8385 Q49.2697,399.1823 49.3947,398.9948 Q49.6603,398.5885 50.129,398.5885 Q50.504,398.5885 50.7384,398.8463 Q50.9728,399.1041 50.9728,399.7135 L50.9728,401.6823 Q50.9728,402.2291 50.8478,402.4166 Q50.5822,402.8073 50.129,402.8073 Q49.6603,402.8073 49.3947,402.401 Q49.2697,402.2135 49.2697,401.5416 L47.7853,401.5416 Z " fill="#000000"/><text fill="#000000" font-family="sans-serif" font-size="14" lengthAdjust="spacing" textLength="88" x="62.9259" y="406.4733">StatisticsPoint</text><line style="stroke:#181818;stroke-width:0.5;" x1="34.9259" x2="152.9259" y1="416.7448" y2="416.7448"/><text fill="#000000" font-family="sans-serif" font-size="14" lengthAdjust="spacing" textLength="49" x="39.9259" y="435.278">int Year</text><text fill="#000000" font-family="sans-serif" font-size="14" lengthAdjust="spacing" textLength="83" x="39.9259" y="452.8874">double Value</text><line style="stroke:#181818;stroke-width:0.5;" x1="34.9259" x2="152.9259" y1="459.9635" y2="459.9635"/></g><!--class TagValue--><g id="elem_TagValue"><rect codeLine="434" fill="#F1F1F1" height="65.6094" id="TagValue" rx="2.5" ry="2.5" style="stroke:#181818;stroke-width:0.5;" width="93" x="189.4259" y="393.2448"/><ellipse cx="204.4259" cy="409.2448" fill="#ADD1B2" rx="11" ry="11" style="stroke:#181818;stroke-width:1.0;"/><path d="M203.2853,410.0416 L203.2853,412.5416 L207.6134,412.5416 L207.6134,411.6198 Q207.6134,411.0104 207.8556,410.7448 Q208.0978,410.4791 208.4728,410.4791 Q208.8478,410.4791 209.0822,410.7448 Q209.3165,411.0104 209.3165,411.6198 L209.3165,414.2448 L201.3165,414.2448 Q200.6915,414.2448 200.4337,414.0104 Q200.1759,413.776 200.1759,413.3854 Q200.1759,413.0104 200.4415,412.776 Q200.7072,412.5416 201.3165,412.5416 L201.5822,412.5416 L201.5822,405.8854 L201.3165,405.8854 Q200.6915,405.8854 200.4337,405.651 Q200.1759,405.4166 200.1759,405.026 Q200.1759,404.651 200.4337,404.4166 Q200.6915,404.1823 201.3165,404.1823 L208.9415,404.1823 L208.9415,406.776 Q208.9415,407.3854 208.715,407.6432 Q208.4884,407.901 208.0978,407.901 Q207.7228,407.901 207.4884,407.6432 Q207.254,407.3854 207.254,406.776 L207.254,405.8854 L203.2853,405.8854 L203.2853,408.3385 L204.7697,408.3385 Q204.7697,407.6823 204.8947,407.4948 Q205.1603,407.0885 205.629,407.0885 Q206.004,407.0885 206.2384,407.3463 Q206.4728,407.6041 206.4728,408.2135 L206.4728,410.1823 Q206.4728,410.7291 206.3478,410.9166 Q206.0822,411.3073 205.629,411.3073 Q205.1603,411.3073 204.8947,410.901 Q204.7697,410.7135 204.7697,410.0416 L203.2853,410.0416 Z " fill="#000000"/><text fill="#000000" font-family="sans-serif" font-size="14" lengthAdjust="spacing" textLength="61" x="218.4259" y="414.9733">TagValue</text><line style="stroke:#181818;stroke-width:0.5;" x1="190.4259" x2="281.4259" y1="425.2448" y2="425.2448"/><text fill="#000000" font-family="sans-serif" font-size="14" lengthAdjust="spacing" textLength="75" x="195.4259" y="443.778">string Value</text><line style="stroke:#181818;stroke-width:0.5;" x1="190.4259" x2="281.4259" y1="450.8541" y2="450.8541"/></g><!--class Tag--><g id="elem_Tag"><rect codeLine="437" fill="#F1F1F1" height="65.6094" id="Tag" rx="2.5" ry="2.5" style="stroke:#181818;stroke-width:0.5;" width="100" x="317.9259" y="393.2448"/><ellipse cx="352.2759" cy="409.2448" fill="#ADD1B2" rx="11" ry="11" style="stroke:#181818;stroke-width:1.0;"/><path d="M351.1353,410.0416 L351.1353,412.5416 L355.4634,412.5416 L355.4634,411.6198 Q355.4634,411.0104 355.7056,410.7448 Q355.9478,410.4791 356.3228,410.4791 Q356.6978,410.4791 356.9322,410.7448 Q357.1665,411.0104 357.1665,411.6198 L357.1665,414.2448 L349.1665,414.2448 Q348.5415,414.2448 348.2837,414.0104 Q348.0259,413.776 348.0259,413.3854 Q348.0259,413.0104 348.2915,412.776 Q348.5572,412.5416 349.1665,412.5416 L349.4322,412.5416 L349.4322,405.8854 L349.1665,405.8854 Q348.5415,405.8854 348.2837,405.651 Q348.0259,405.4166 348.0259,405.026 Q348.0259,404.651 348.2837,404.4166 Q348.5415,404.1823 349.1665,404.1823 L356.7915,404.1823 L356.7915,406.776 Q356.7915,407.3854 356.565,407.6432 Q356.3384,407.901 355.9478,407.901 Q355.5728,407.901 355.3384,407.6432 Q355.104,407.3854 355.104,406.776 L355.104,405.8854 L351.1353,405.8854 L351.1353,408.3385 L352.6197,408.3385 Q352.6197,407.6823 352.7447,407.4948 Q353.0103,407.0885 353.479,407.0885 Q353.854,407.0885 354.0884,407.3463 Q354.3228,407.6041 354.3228,408.2135 L354.3228,410.1823 Q354.3228,410.7291 354.1978,410.9166 Q353.9322,411.3073 353.479,411.3073 Q353.0103,411.3073 352.7447,410.901 Q352.6197,410.7135 352.6197,410.0416 L351.1353,410.0416 Z " fill="#000000"/><text fill="#000000" font-family="sans-serif" font-size="14" lengthAdjust="spacing" textLength="25" x="370.5759" y="414.9733">Tag</text><line style="stroke:#181818;stroke-width:0.5;" x1="318.9259" x2="416.9259" y1="425.2448" y2="425.2448"/><text fill="#000000" font-family="sans-serif" font-size="14" lengthAdjust="spacing" textLength="88" x="323.9259" y="443.778">string Caption</text><line style="stroke:#181818;stroke-width:0.5;" x1="318.9259" x2="416.9259" y1="450.8541" y2="450.8541"/></g><!--reverse link UserRating to User--><g id="link_UserRating_User"><path codeLine="442" d="M160.9659,97.2448 C172.6359,97.2448 176.2959,97.2448 187.9559,97.2448 " fill="none" id="UserRating-backto-User" style="stroke:#181818;stroke-width:1.0;"/><line style="stroke:#181818;stroke-width:1.0;" x1="160.9659" x2="152.9659" y1="97.2448" y2="105.2448"/><line style="stroke:#181818;stroke-width:1.0;" x1="160.9659" x2="152.9659" y1="97.2448" y2="89.2448"/><line style="stroke:#181818;stroke-width:1.0;" x1="160.9659" x2="152.9659" y1="97.2448" y2="97.2448"/><text fill="#000000" font-family="sans-serif" font-size="13" lengthAdjust="spacing" textLength="5" x="160.8296" y="93.6194">*</text><text fill="#000000" font-family="sans-serif" font-size="13" lengthAdjust="spacing" textLength="7" x="173.5699" y="94.1558">2</text></g><!--link User to Statistics--><g id="link_User_Statistics"><path codeLine="443" d="M284.0459,130.3448 C286.5759,156.3948 289.411,185.6124 292.321,215.5124 " fill="none" id="User-to-Statistics" style="stroke:#181818;stroke-width:1.0;"/><line style="stroke:#181818;stroke-width:1.0;" x1="292.321" x2="301.0583" y1="215.5124" y2="223.4748"/><line style="stroke:#181818;stroke-width:1.0;" x1="292.321" x2="285.1335" y1="215.5124" y2="223.4748"/><line style="stroke:#181818;stroke-width:1.0;" x1="292.321" x2="293.0959" y1="215.5124" y2="223.4748"/></g><!--link User to StatisticsRating--><g id="link_User_StatisticsRating"><path codeLine="444" d="M373.6459,121.2348 C392.5059,122.6848 403.4478,123.2067 422.3078,120.4867 " fill="none" id="User-to-StatisticsRating" style="stroke:#181818;stroke-width:1.0;"/><line style="stroke:#181818;stroke-width:1.0;" x1="422.3078" x2="430.2259" y1="120.4867" y2="111.4267"/><line style="stroke:#181818;stroke-width:1.0;" x1="422.3078" x2="430.2259" y1="120.4867" y2="127.2629"/><line style="stroke:#181818;stroke-width:1.0;" x1="422.3078" x2="430.2259" y1="120.4867" y2="119.3448"/></g><!--reverse link StatisticsRating to Statistics--><g id="link_StatisticsRating_Statistics"><path codeLine="445" d="M440.7551,153.0761 C412.5351,176.8261 384.9559,200.0248 356.7659,223.7448 " fill="none" id="StatisticsRating-backto-Statistics" style="stroke:#181818;stroke-width:1.0;"/><line style="stroke:#181818;stroke-width:1.0;" x1="440.7551" x2="441.7246" y1="153.0761" y2="147.9248"/><line style="stroke:#181818;stroke-width:1.0;" x1="440.7551" x2="452.0272" y1="153.0761" y2="147.9248"/><line style="stroke:#181818;stroke-width:1.0;" x1="440.7551" x2="446.8759" y1="153.0761" y2="147.9248"/></g><!--reverse link Statistics to Source--><g id="link_Statistics_Source"><path codeLine="446" d="M425.9759,274.2448 C444.7859,274.2448 455.6059,274.2448 474.4159,274.2448 " fill="none" id="Statistics-backto-Source" style="stroke:#181818;stroke-width:1.0;"/><line style="stroke:#181818;stroke-width:1.0;" x1="425.9759" x2="417.9759" y1="274.2448" y2="282.2448"/><line style="stroke:#181818;stroke-width:1.0;" x1="425.9759" x2="417.9759" y1="274.2448" y2="266.2448"/><line style="stroke:#181818;stroke-width:1.0;" x1="425.9759" x2="417.9759" y1="274.2448" y2="274.2448"/></g><!--link Statistics to StatisticsPoint--><g id="link_Statistics_StatisticsPoint"><path codeLine="447" d="M230.5659,324.7748 C204.2159,344.1448 180.8219,361.3567 155.7619,379.7767 " fill="none" id="Statistics-to-StatisticsPoint" style="stroke:#181818;stroke-width:1.0;"/><line style="stroke:#181818;stroke-width:1.0;" x1="155.7619" x2="154.0539" y1="379.7767" y2="384.5148"/><line style="stroke:#181818;stroke-width:1.0;" x1="155.7619" x2="144.5779" y1="379.7767" y2="384.5148"/><line style="stroke:#181818;stroke-width:1.0;" x1="155.7619" x2="149.3159" y1="379.7767" y2="384.5148"/></g><!--link Statistics to Tag--><g id="link_Statistics_Tag"><path codeLine="448" d="M321.0359,324.7748 C331.5559,347.3048 340.3002,366.0665 349.6002,385.9765 " fill="none" id="Statistics-to-Tag" style="stroke:#181818;stroke-width:1.0;"/><line style="stroke:#181818;stroke-width:1.0;" x1="349.6002" x2="360.2342" y1="385.9765" y2="393.2248"/><line style="stroke:#181818;stroke-width:1.0;" x1="349.6002" x2="345.7376" y1="385.9765" y2="393.2248"/><line style="stroke:#181818;stroke-width:1.0;" x1="349.6002" x2="352.9859" y1="385.9765" y2="393.2248"/></g><!--link StatisticsPoint to TagValue--><g id="link_StatisticsPoint_TagValue"><path codeLine="449" d="M162.1059,426.2448 C173.8259,426.2448 169.5459,426.2448 181.2659,426.2448 " fill="none" id="StatisticsPoint-TagValue" style="stroke:#181818;stroke-width:1.0;"/><line style="stroke:#181818;stroke-width:1.0;" x1="162.1059" x2="154.1059" y1="426.2448" y2="434.2448"/><line style="stroke:#181818;stroke-width:1.0;" x1="162.1059" x2="154.1059" y1="426.2448" y2="418.2448"/><line style="stroke:#181818;stroke-width:1.0;" x1="162.1059" x2="154.1059" y1="426.2448" y2="426.2448"/><line style="stroke:#181818;stroke-width:1.0;" x1="181.2659" x2="189.2659" y1="426.2448" y2="418.2448"/><line style="stroke:#181818;stroke-width:1.0;" x1="181.2659" x2="189.2659" y1="426.2448" y2="434.2448"/><line style="stroke:#181818;stroke-width:1.0;" x1="181.2659" x2="189.2659" y1="426.2448" y2="426.2448"/></g><!--reverse link TagValue to Tag--><g id="link_TagValue_Tag"><path codeLine="450" d="M290.5859,426.2448 C302.3659,426.2448 306.1459,426.2448 317.9259,426.2448 " fill="none" id="TagValue-backto-Tag" style="stroke:#181818;stroke-width:1.0;"/><line style="stroke:#181818;stroke-width:1.0;" x1="290.5859" x2="282.5859" y1="426.2448" y2="434.2448"/><line style="stroke:#181818;stroke-width:1.0;" x1="290.5859" x2="282.5859" y1="426.2448" y2="418.2448"/><line style="stroke:#181818;stroke-width:1.0;" x1="290.5859" x2="282.5859" y1="426.2448" y2="426.2448"/></g><!--SRC=[bLAxRiCm39ojhn0y5l3IESZYe42tD8y27LM9COJAag7741Z-zrAMaygEYwARTJpoU4TtZ7-n1kZPWNLqiwcL2MAxfJqfG7lfhsFbmBpKJGGBgJrDJr8CCz9OTjv6Pdo_M0bQgEkhYAIB11ix1j9DaaSJB8TrqLJxxyITT3mu9urU7-fnR-SbTx_ukMdLfcsn1u4Tyt2IBOx6Zxrn7iJ2n7qcCjWVihcVcdKU5_q1akK3NC22vl0Mc4ABd4sisIRdJXacqYwFCdiJJTtCVG33c0fXmgS2-ivKWBpjn9eHotTR8wtk7fCWsGzIFfLqg6ZvN8xt6akqglfikGdh7wv17iupL5NUcEM86Yck79phZ24io-Y3B7CQ4fuytzD0XKZ-1W00]--></g></svg>