<?xml version="1.0" encoding="us-ascii" standalone="no"?><svg xmlns="http://www.w3.org/2000/svg" xmlns:xlink="http://www.w3.org/1999/xlink" contentStyleType="text/css" height="419px" preserveAspectRatio="none" style="width:685px;height:419px;background:#FFFFFF;" version="1.1" viewBox="0 0 685 419" width="685px" zoomAndPan="magnify"><defs/><g><!--class UserRating--><g id="elem_UserRating"><rect codeLine="337" fill="#F1F1F1" height="65.6094" id="UserRating" rx="2.5" ry="2.5" style="stroke:#181818;stroke-width:0.5;" width="102" x="7" y="24.5"/><ellipse cx="22" cy="40.5" fill="#ADD1B2" rx="11" ry="11" style="stroke:#181818;stroke-width:1.0;"/><path d="M20.8594,41.2969 L20.8594,43.7969 L25.1875,43.7969 L25.1875,42.875 Q25.1875,42.2656 25.4297,42 Q25.6719,41.7344 26.0469,41.7344 Q26.4219,41.7344 26.6563,42 Q26.8906,42.2656 26.8906,42.875 L26.8906,45.5 L18.8906,45.5 Q18.2656,45.5 18.0078,45.2656 Q17.75,45.0313 17.75,44.6406 Q17.75,44.2656 18.0156,44.0313 Q18.2813,43.7969 18.8906,43.7969 L19.1563,43.7969 L19.1563,37.1406 L18.8906,37.1406 Q18.2656,37.1406 18.0078,36.9063 Q17.75,36.6719 17.75,36.2813 Q17.75,35.9063 18.0078,35.6719 Q18.2656,35.4375 18.8906,35.4375 L26.5156,35.4375 L26.5156,38.0313 Q26.5156,38.6406 26.2891,38.8984 Q26.0625,39.1563 25.6719,39.1563 Q25.2969,39.1563 25.0625,38.8984 Q24.8281,38.6406 24.8281,38.0313 L24.8281,37.1406 L20.8594,37.1406 L20.8594,39.5938 L22.3438,39.5938 Q22.3438,38.9375 22.4688,38.75 Q22.7344,38.3438 23.2031,38.3438 Q23.5781,38.3438 23.8125,38.6016 Q24.0469,38.8594 24.0469,39.4688 L24.0469,41.4375 Q24.0469,41.9844 23.9219,42.1719 Q23.6563,42.5625 23.2031,42.5625 Q22.7344,42.5625 22.4688,42.1563 Q22.3438,41.9688 22.3438,41.2969 L20.8594,41.2969 Z " fill="#000000"/><text fill="#000000" font-family="sans-serif" font-size="14" lengthAdjust="spacing" textLength="70" x="36" y="46.2285">UserRating</text><line style="stroke:#181818;stroke-width:0.5;" x1="8" x2="108" y1="56.5" y2="56.5"/><text fill="#000000" font-family="sans-serif" font-size="14" lengthAdjust="spacing" textLength="60" x="13" y="75.0332">int Rating</text><line style="stroke:#181818;stroke-width:0.5;" x1="8" x2="108" y1="82.1094" y2="82.1094"/></g><!--class User--><g id="elem_User"><rect codeLine="340" fill="#F1F1F1" height="65.6094" id="User" rx="2.5" ry="2.5" style="stroke:#181818;stroke-width:0.5;" width="185" x="144.5" y="24.5"/><ellipse cx="218.25" cy="40.5" fill="#ADD1B2" rx="11" ry="11" style="stroke:#181818;stroke-width:1.0;"/><path d="M217.1094,41.2969 L217.1094,43.7969 L221.4375,43.7969 L221.4375,42.875 Q221.4375,42.2656 221.6797,42 Q221.9219,41.7344 222.2969,41.7344 Q222.6719,41.7344 222.9063,42 Q223.1406,42.2656 223.1406,42.875 L223.1406,45.5 L215.1406,45.5 Q214.5156,45.5 214.2578,45.2656 Q214,45.0313 214,44.6406 Q214,44.2656 214.2656,44.0313 Q214.5313,43.7969 215.1406,43.7969 L215.4063,43.7969 L215.4063,37.1406 L215.1406,37.1406 Q214.5156,37.1406 214.2578,36.9063 Q214,36.6719 214,36.2813 Q214,35.9063 214.2578,35.6719 Q214.5156,35.4375 215.1406,35.4375 L222.7656,35.4375 L222.7656,38.0313 Q222.7656,38.6406 222.5391,38.8984 Q222.3125,39.1563 221.9219,39.1563 Q221.5469,39.1563 221.3125,38.8984 Q221.0781,38.6406 221.0781,38.0313 L221.0781,37.1406 L217.1094,37.1406 L217.1094,39.5938 L218.5938,39.5938 Q218.5938,38.9375 218.7188,38.75 Q218.9844,38.3438 219.4531,38.3438 Q219.8281,38.3438 220.0625,38.6016 Q220.2969,38.8594 220.2969,39.4688 L220.2969,41.4375 Q220.2969,41.9844 220.1719,42.1719 Q219.9063,42.5625 219.4531,42.5625 Q218.9844,42.5625 218.7188,42.1563 Q218.5938,41.9688 218.5938,41.2969 L217.1094,41.2969 Z " fill="#000000"/><text fill="#000000" font-family="sans-serif" font-size="14" lengthAdjust="spacing" textLength="29" x="238.75" y="46.2285">User</text><line style="stroke:#181818;stroke-width:0.5;" x1="145.5" x2="328.5" y1="56.5" y2="56.5"/><text fill="#000000" font-family="sans-serif" font-size="14" lengthAdjust="spacing" textLength="173" x="150.5" y="75.0332">string UserFriendlyIdentifier</text><line style="stroke:#181818;stroke-width:0.5;" x1="145.5" x2="328.5" y1="82.1094" y2="82.1094"/></g><!--class Source--><g id="elem_Source"><rect codeLine="343" fill="#F1F1F1" height="65.6094" id="Source" rx="2.5" ry="2.5" style="stroke:#181818;stroke-width:0.5;" width="185" x="493.5" y="185.5"/><ellipse cx="559.25" cy="201.5" fill="#ADD1B2" rx="11" ry="11" style="stroke:#181818;stroke-width:1.0;"/><path d="M558.1094,202.2969 L558.1094,204.7969 L562.4375,204.7969 L562.4375,203.875 Q562.4375,203.2656 562.6797,203 Q562.9219,202.7344 563.2969,202.7344 Q563.6719,202.7344 563.9063,203 Q564.1406,203.2656 564.1406,203.875 L564.1406,206.5 L556.1406,206.5 Q555.5156,206.5 555.2578,206.2656 Q555,206.0313 555,205.6406 Q555,205.2656 555.2656,205.0313 Q555.5313,204.7969 556.1406,204.7969 L556.4063,204.7969 L556.4063,198.1406 L556.1406,198.1406 Q555.5156,198.1406 555.2578,197.9063 Q555,197.6719 555,197.2813 Q555,196.9063 555.2578,196.6719 Q555.5156,196.4375 556.1406,196.4375 L563.7656,196.4375 L563.7656,199.0313 Q563.7656,199.6406 563.5391,199.8984 Q563.3125,200.1563 562.9219,200.1563 Q562.5469,200.1563 562.3125,199.8984 Q562.0781,199.6406 562.0781,199.0313 L562.0781,198.1406 L558.1094,198.1406 L558.1094,200.5938 L559.5938,200.5938 Q559.5938,199.9375 559.7188,199.75 Q559.9844,199.3438 560.4531,199.3438 Q560.8281,199.3438 561.0625,199.6016 Q561.2969,199.8594 561.2969,200.4688 L561.2969,202.4375 Q561.2969,202.9844 561.1719,203.1719 Q560.9063,203.5625 560.4531,203.5625 Q559.9844,203.5625 559.7188,203.1563 Q559.5938,202.9688 559.5938,202.2969 L558.1094,202.2969 Z " fill="#000000"/><text fill="#000000" font-family="sans-serif" font-size="14" lengthAdjust="spacing" textLength="45" x="579.75" y="207.2285">Source</text><line style="stroke:#181818;stroke-width:0.5;" x1="494.5" x2="677.5" y1="217.5" y2="217.5"/><text fill="#000000" font-family="sans-serif" font-size="14" lengthAdjust="spacing" textLength="173" x="499.5" y="236.0332">string UserFriendlyIdentifier</text><line style="stroke:#181818;stroke-width:0.5;" x1="494.5" x2="677.5" y1="243.1094" y2="243.1094"/></g><!--class StatisticsRating--><g id="elem_StatisticsRating"><rect codeLine="346" fill="#F1F1F1" height="100.8281" id="StatisticsRating" rx="2.5" ry="2.5" style="stroke:#181818;stroke-width:0.5;" width="151" x="364.5" y="7"/><ellipse cx="389.4" cy="23" fill="#ADD1B2" rx="11" ry="11" style="stroke:#181818;stroke-width:1.0;"/><path d="M388.2594,23.7969 L388.2594,26.2969 L392.5875,26.2969 L392.5875,25.375 Q392.5875,24.7656 392.8297,24.5 Q393.0719,24.2344 393.4469,24.2344 Q393.8219,24.2344 394.0563,24.5 Q394.2906,24.7656 394.2906,25.375 L394.2906,28 L386.2906,28 Q385.6656,28 385.4078,27.7656 Q385.15,27.5313 385.15,27.1406 Q385.15,26.7656 385.4156,26.5313 Q385.6813,26.2969 386.2906,26.2969 L386.5563,26.2969 L386.5563,19.6406 L386.2906,19.6406 Q385.6656,19.6406 385.4078,19.4063 Q385.15,19.1719 385.15,18.7813 Q385.15,18.4063 385.4078,18.1719 Q385.6656,17.9375 386.2906,17.9375 L393.9156,17.9375 L393.9156,20.5313 Q393.9156,21.1406 393.6891,21.3984 Q393.4625,21.6563 393.0719,21.6563 Q392.6969,21.6563 392.4625,21.3984 Q392.2281,21.1406 392.2281,20.5313 L392.2281,19.6406 L388.2594,19.6406 L388.2594,22.0938 L389.7438,22.0938 Q389.7438,21.4375 389.8688,21.25 Q390.1344,20.8438 390.6031,20.8438 Q390.9781,20.8438 391.2125,21.1016 Q391.4469,21.3594 391.4469,21.9688 L391.4469,23.9375 Q391.4469,24.4844 391.3219,24.6719 Q391.0563,25.0625 390.6031,25.0625 Q390.1344,25.0625 389.8688,24.6563 Q389.7438,24.4688 389.7438,23.7969 L388.2594,23.7969 Z " fill="#000000"/><text fill="#000000" font-family="sans-serif" font-size="14" lengthAdjust="spacing" textLength="97" x="405.6" y="28.7285">StatisticsRating</text><line style="stroke:#181818;stroke-width:0.5;" x1="365.5" x2="514.5" y1="39" y2="39"/><text fill="#000000" font-family="sans-serif" font-size="14" lengthAdjust="spacing" textLength="60" x="370.5" y="57.5332">int Rating</text><text fill="#000000" font-family="sans-serif" font-size="14" lengthAdjust="spacing" textLength="99" x="370.5" y="75.1426">string Comment</text><text fill="#000000" font-family="sans-serif" font-size="14" lengthAdjust="spacing" textLength="139" x="370.5" y="92.752">DateTime DatePosted</text><line style="stroke:#181818;stroke-width:0.5;" x1="365.5" x2="514.5" y1="99.8281" y2="99.8281"/></g><!--class Statistics--><g id="elem_Statistics"><rect codeLine="351" fill="#F1F1F1" height="100.8281" id="Statistics" rx="2.5" ry="2.5" style="stroke:#181818;stroke-width:0.5;" width="240" x="218" y="168"/><ellipse cx="305.75" cy="184" fill="#ADD1B2" rx="11" ry="11" style="stroke:#181818;stroke-width:1.0;"/><path d="M304.6094,184.7969 L304.6094,187.2969 L308.9375,187.2969 L308.9375,186.375 Q308.9375,185.7656 309.1797,185.5 Q309.4219,185.2344 309.7969,185.2344 Q310.1719,185.2344 310.4063,185.5 Q310.6406,185.7656 310.6406,186.375 L310.6406,189 L302.6406,189 Q302.0156,189 301.7578,188.7656 Q301.5,188.5313 301.5,188.1406 Q301.5,187.7656 301.7656,187.5313 Q302.0313,187.2969 302.6406,187.2969 L302.9063,187.2969 L302.9063,180.6406 L302.6406,180.6406 Q302.0156,180.6406 301.7578,180.4063 Q301.5,180.1719 301.5,179.7813 Q301.5,179.4063 301.7578,179.1719 Q302.0156,178.9375 302.6406,178.9375 L310.2656,178.9375 L310.2656,181.5313 Q310.2656,182.1406 310.0391,182.3984 Q309.8125,182.6563 309.4219,182.6563 Q309.0469,182.6563 308.8125,182.3984 Q308.5781,182.1406 308.5781,181.5313 L308.5781,180.6406 L304.6094,180.6406 L304.6094,183.0938 L306.0938,183.0938 Q306.0938,182.4375 306.2188,182.25 Q306.4844,181.8438 306.9531,181.8438 Q307.3281,181.8438 307.5625,182.1016 Q307.7969,182.3594 307.7969,182.9688 L307.7969,184.9375 Q307.7969,185.4844 307.6719,185.6719 Q307.4063,186.0625 306.9531,186.0625 Q306.4844,186.0625 306.2188,185.6563 Q306.0938,185.4688 306.0938,184.7969 L304.6094,184.7969 Z " fill="#000000"/><text fill="#000000" font-family="sans-serif" font-size="14" lengthAdjust="spacing" textLength="56" x="326.25" y="189.7285">Statistics</text><line style="stroke:#181818;stroke-width:0.5;" x1="219" x2="457" y1="200" y2="200"/><text fill="#000000" font-family="sans-serif" font-size="14" lengthAdjust="spacing" textLength="88" x="224" y="218.5332">string Caption</text><text fill="#000000" font-family="sans-serif" font-size="14" lengthAdjust="spacing" textLength="228" x="224" y="236.1426">string SourceReferenceQualification</text><text fill="#000000" font-family="sans-serif" font-size="14" lengthAdjust="spacing" textLength="155" x="224" y="253.752">DateTime DateUploaded</text><line style="stroke:#181818;stroke-width:0.5;" x1="219" x2="457" y1="260.8281" y2="260.8281"/></g><!--class StatisticsPoint--><g id="elem_StatisticsPoint"><rect codeLine="356" fill="#F1F1F1" height="83.2188" id="StatisticsPoint" rx="2.5" ry="2.5" style="stroke:#181818;stroke-width:0.5;" width="120" x="141" y="329"/><ellipse cx="156" cy="345" fill="#ADD1B2" rx="11" ry="11" style="stroke:#181818;stroke-width:1.0;"/><path d="M154.8594,345.7969 L154.8594,348.2969 L159.1875,348.2969 L159.1875,347.375 Q159.1875,346.7656 159.4297,346.5 Q159.6719,346.2344 160.0469,346.2344 Q160.4219,346.2344 160.6563,346.5 Q160.8906,346.7656 160.8906,347.375 L160.8906,350 L152.8906,350 Q152.2656,350 152.0078,349.7656 Q151.75,349.5313 151.75,349.1406 Q151.75,348.7656 152.0156,348.5313 Q152.2813,348.2969 152.8906,348.2969 L153.1563,348.2969 L153.1563,341.6406 L152.8906,341.6406 Q152.2656,341.6406 152.0078,341.4063 Q151.75,341.1719 151.75,340.7813 Q151.75,340.4063 152.0078,340.1719 Q152.2656,339.9375 152.8906,339.9375 L160.5156,339.9375 L160.5156,342.5313 Q160.5156,343.1406 160.2891,343.3984 Q160.0625,343.6563 159.6719,343.6563 Q159.2969,343.6563 159.0625,343.3984 Q158.8281,343.1406 158.8281,342.5313 L158.8281,341.6406 L154.8594,341.6406 L154.8594,344.0938 L156.3438,344.0938 Q156.3438,343.4375 156.4688,343.25 Q156.7344,342.8438 157.2031,342.8438 Q157.5781,342.8438 157.8125,343.1016 Q158.0469,343.3594 158.0469,343.9688 L158.0469,345.9375 Q158.0469,346.4844 157.9219,346.6719 Q157.6563,347.0625 157.2031,347.0625 Q156.7344,347.0625 156.4688,346.6563 Q156.3438,346.4688 156.3438,345.7969 L154.8594,345.7969 Z " fill="#000000"/><text fill="#000000" font-family="sans-serif" font-size="14" lengthAdjust="spacing" textLength="88" x="170" y="350.7285">StatisticsPoint</text><line style="stroke:#181818;stroke-width:0.5;" x1="142" x2="260" y1="361" y2="361"/><text fill="#000000" font-family="sans-serif" font-size="14" lengthAdjust="spacing" textLength="49" x="147" y="379.5332">int Year</text><text fill="#000000" font-family="sans-serif" font-size="14" lengthAdjust="spacing" textLength="83" x="147" y="397.1426">double Value</text><line style="stroke:#181818;stroke-width:0.5;" x1="142" x2="260" y1="404.2188" y2="404.2188"/></g><!--class TagValue--><g id="elem_TagValue"><rect codeLine="360" fill="#F1F1F1" height="65.6094" id="TagValue" rx="2.5" ry="2.5" style="stroke:#181818;stroke-width:0.5;" width="93" x="296.5" y="337.5"/><ellipse cx="311.5" cy="353.5" fill="#ADD1B2" rx="11" ry="11" style="stroke:#181818;stroke-width:1.0;"/><path d="M310.3594,354.2969 L310.3594,356.7969 L314.6875,356.7969 L314.6875,355.875 Q314.6875,355.2656 314.9297,355 Q315.1719,354.7344 315.5469,354.7344 Q315.9219,354.7344 316.1563,355 Q316.3906,355.2656 316.3906,355.875 L316.3906,358.5 L308.3906,358.5 Q307.7656,358.5 307.5078,358.2656 Q307.25,358.0313 307.25,357.6406 Q307.25,357.2656 307.5156,357.0313 Q307.7813,356.7969 308.3906,356.7969 L308.6563,356.7969 L308.6563,350.1406 L308.3906,350.1406 Q307.7656,350.1406 307.5078,349.9063 Q307.25,349.6719 307.25,349.2813 Q307.25,348.9063 307.5078,348.6719 Q307.7656,348.4375 308.3906,348.4375 L316.0156,348.4375 L316.0156,351.0313 Q316.0156,351.6406 315.7891,351.8984 Q315.5625,352.1563 315.1719,352.1563 Q314.7969,352.1563 314.5625,351.8984 Q314.3281,351.6406 314.3281,351.0313 L314.3281,350.1406 L310.3594,350.1406 L310.3594,352.5938 L311.8438,352.5938 Q311.8438,351.9375 311.9688,351.75 Q312.2344,351.3438 312.7031,351.3438 Q313.0781,351.3438 313.3125,351.6016 Q313.5469,351.8594 313.5469,352.4688 L313.5469,354.4375 Q313.5469,354.9844 313.4219,355.1719 Q313.1563,355.5625 312.7031,355.5625 Q312.2344,355.5625 311.9688,355.1563 Q311.8438,354.9688 311.8438,354.2969 L310.3594,354.2969 Z " fill="#000000"/><text fill="#000000" font-family="sans-serif" font-size="14" lengthAdjust="spacing" textLength="61" x="325.5" y="359.2285">TagValue</text><line style="stroke:#181818;stroke-width:0.5;" x1="297.5" x2="388.5" y1="369.5" y2="369.5"/><text fill="#000000" font-family="sans-serif" font-size="14" lengthAdjust="spacing" textLength="75" x="302.5" y="388.0332">string Value</text><line style="stroke:#181818;stroke-width:0.5;" x1="297.5" x2="388.5" y1="395.1094" y2="395.1094"/></g><!--class Tag--><g id="elem_Tag"><rect codeLine="363" fill="#F1F1F1" height="65.6094" id="Tag" rx="2.5" ry="2.5" style="stroke:#181818;stroke-width:0.5;" width="100" x="425" y="337.5"/><ellipse cx="459.35" cy="353.5" fill="#ADD1B2" rx="11" ry="11" style="stroke:#181818;stroke-width:1.0;"/><path d="M458.2094,354.2969 L458.2094,356.7969 L462.5375,356.7969 L462.5375,355.875 Q462.5375,355.2656 462.7797,355 Q463.0219,354.7344 463.3969,354.7344 Q463.7719,354.7344 464.0063,355 Q464.2406,355.2656 464.2406,355.875 L464.2406,358.5 L456.2406,358.5 Q455.6156,358.5 455.3578,358.2656 Q455.1,358.0313 455.1,357.6406 Q455.1,357.2656 455.3656,357.0313 Q455.6313,356.7969 456.2406,356.7969 L456.5063,356.7969 L456.5063,350.1406 L456.2406,350.1406 Q455.6156,350.1406 455.3578,349.9063 Q455.1,349.6719 455.1,349.2813 Q455.1,348.9063 455.3578,348.6719 Q455.6156,348.4375 456.2406,348.4375 L463.8656,348.4375 L463.8656,351.0313 Q463.8656,351.6406 463.6391,351.8984 Q463.4125,352.1563 463.0219,352.1563 Q462.6469,352.1563 462.4125,351.8984 Q462.1781,351.6406 462.1781,351.0313 L462.1781,350.1406 L458.2094,350.1406 L458.2094,352.5938 L459.6938,352.5938 Q459.6938,351.9375 459.8188,351.75 Q460.0844,351.3438 460.5531,351.3438 Q460.9281,351.3438 461.1625,351.6016 Q461.3969,351.8594 461.3969,352.4688 L461.3969,354.4375 Q461.3969,354.9844 461.2719,355.1719 Q461.0063,355.5625 460.5531,355.5625 Q460.0844,355.5625 459.8188,355.1563 Q459.6938,354.9688 459.6938,354.2969 L458.2094,354.2969 Z " fill="#000000"/><text fill="#000000" font-family="sans-serif" font-size="14" lengthAdjust="spacing" textLength="25" x="477.65" y="359.2285">Tag</text><line style="stroke:#181818;stroke-width:0.5;" x1="426" x2="524" y1="369.5" y2="369.5"/><text fill="#000000" font-family="sans-serif" font-size="14" lengthAdjust="spacing" textLength="88" x="431" y="388.0332">string Caption</text><line style="stroke:#181818;stroke-width:0.5;" x1="426" x2="524" y1="395.1094" y2="395.1094"/></g><!--reverse link UserRating to User--><g id="link_UserRating_User"><path codeLine="367" d="M117.04,57.5 C128.71,57.5 132.37,57.5 144.03,57.5 " fill="none" id="UserRating-backto-User" style="stroke:#181818;stroke-width:1.0;"/><line style="stroke:#181818;stroke-width:1.0;" x1="117.04" x2="109.04" y1="57.5" y2="65.5"/><line style="stroke:#181818;stroke-width:1.0;" x1="117.04" x2="109.04" y1="57.5" y2="49.5"/><line style="stroke:#181818;stroke-width:1.0;" x1="117.04" x2="109.04" y1="57.5" y2="57.5"/><text fill="#000000" font-family="sans-serif" font-size="13" lengthAdjust="spacing" textLength="5" x="116.9037" y="53.8746">*</text><text fill="#000000" font-family="sans-serif" font-size="13" lengthAdjust="spacing" textLength="7" x="129.644" y="54.411">2</text></g><!--link User to Statistics--><g id="link_User_Statistics"><path codeLine="368" d="M257.44,90.68 C271.5,112.82 286.1702,135.9074 302.1602,161.0774 " fill="none" id="User-to-Statistics" style="stroke:#181818;stroke-width:1.0;"/><line style="stroke:#181818;stroke-width:1.0;" x1="302.1602" x2="313.2026" y1="161.0774" y2="167.83"/><line style="stroke:#181818;stroke-width:1.0;" x1="302.1602" x2="299.6974" y1="161.0774" y2="167.83"/><line style="stroke:#181818;stroke-width:1.0;" x1="302.1602" x2="306.45" y1="161.0774" y2="167.83"/></g><!--link User to StatisticsRating--><g id="link_User_StatisticsRating"><path codeLine="369" d="M329.78,57.5 C341.26,57.5 344.74,57.5 356.22,57.5 " fill="none" id="User-to-StatisticsRating" style="stroke:#181818;stroke-width:1.0;"/><line style="stroke:#181818;stroke-width:1.0;" x1="356.22" x2="364.22" y1="57.5" y2="49.5"/><line style="stroke:#181818;stroke-width:1.0;" x1="356.22" x2="364.22" y1="57.5" y2="65.5"/><line style="stroke:#181818;stroke-width:1.0;" x1="356.22" x2="364.22" y1="57.5" y2="57.5"/></g><!--reverse link StatisticsRating to Statistics--><g id="link_StatisticsRating_Statistics"><path codeLine="370" d="M403.6895,115.103 C391.5295,134.053 382.02,148.88 369.88,167.8 " fill="none" id="StatisticsRating-backto-Statistics" style="stroke:#181818;stroke-width:1.0;"/><line style="stroke:#181818;stroke-width:1.0;" x1="403.6895" x2="401.277" y1="115.103" y2="108.37"/><line style="stroke:#181818;stroke-width:1.0;" x1="403.6895" x2="414.743" y1="115.103" y2="108.37"/><line style="stroke:#181818;stroke-width:1.0;" x1="403.6895" x2="408.01" y1="115.103" y2="108.37"/></g><!--reverse link Statistics to Source--><g id="link_Statistics_Source"><path codeLine="371" d="M466.12,218.5 C477.78,218.5 481.44,218.5 493.09,218.5 " fill="none" id="Statistics-backto-Source" style="stroke:#181818;stroke-width:1.0;"/><line style="stroke:#181818;stroke-width:1.0;" x1="466.12" x2="458.12" y1="218.5" y2="226.5"/><line style="stroke:#181818;stroke-width:1.0;" x1="466.12" x2="458.12" y1="218.5" y2="210.5"/><line style="stroke:#181818;stroke-width:1.0;" x1="466.12" x2="458.12" y1="218.5" y2="218.5"/></g><!--link Statistics to StatisticsPoint--><g id="link_Statistics_StatisticsPoint"><path codeLine="372" d="M292.76,269.03 C275.15,288.32 260.5939,304.2418 243.8139,322.6218 " fill="none" id="Statistics-to-StatisticsPoint" style="stroke:#181818;stroke-width:1.0;"/><line style="stroke:#181818;stroke-width:1.0;" x1="243.8139" x2="244.3282" y1="322.6218" y2="328.53"/><line style="stroke:#181818;stroke-width:1.0;" x1="243.8139" x2="232.5118" y1="322.6218" y2="328.53"/><line style="stroke:#181818;stroke-width:1.0;" x1="243.8139" x2="238.42" y1="322.6218" y2="328.53"/></g><!--link Statistics to Tag--><g id="link_Statistics_Tag"><path codeLine="373" d="M383.24,269.03 C403.81,291.56 422.1756,311.6623 440.3556,331.5723 " fill="none" id="Statistics-to-Tag" style="stroke:#181818;stroke-width:1.0;"/><line style="stroke:#181818;stroke-width:1.0;" x1="440.3556" x2="451.6577" y1="331.5723" y2="337.48"/><line style="stroke:#181818;stroke-width:1.0;" x1="440.3556" x2="439.8423" y1="331.5723" y2="337.48"/><line style="stroke:#181818;stroke-width:1.0;" x1="440.3556" x2="445.75" y1="331.5723" y2="337.48"/></g><!--link StatisticsPoint to TagValue--><g id="link_StatisticsPoint_TagValue"><path codeLine="374" d="M269.18,370.5 C280.9,370.5 276.62,370.5 288.34,370.5 " fill="none" id="StatisticsPoint-TagValue" style="stroke:#181818;stroke-width:1.0;"/><line style="stroke:#181818;stroke-width:1.0;" x1="269.18" x2="261.18" y1="370.5" y2="378.5"/><line style="stroke:#181818;stroke-width:1.0;" x1="269.18" x2="261.18" y1="370.5" y2="362.5"/><line style="stroke:#181818;stroke-width:1.0;" x1="269.18" x2="261.18" y1="370.5" y2="370.5"/><line style="stroke:#181818;stroke-width:1.0;" x1="288.34" x2="296.34" y1="370.5" y2="362.5"/><line style="stroke:#181818;stroke-width:1.0;" x1="288.34" x2="296.34" y1="370.5" y2="378.5"/><line style="stroke:#181818;stroke-width:1.0;" x1="288.34" x2="296.34" y1="370.5" y2="370.5"/></g><!--reverse link TagValue to Tag--><g id="link_TagValue_Tag"><path codeLine="375" d="M397.66,370.5 C409.44,370.5 413.22,370.5 425,370.5 " fill="none" id="TagValue-backto-Tag" style="stroke:#181818;stroke-width:1.0;"/><line style="stroke:#181818;stroke-width:1.0;" x1="397.66" x2="389.66" y1="370.5" y2="378.5"/><line style="stroke:#181818;stroke-width:1.0;" x1="397.66" x2="389.66" y1="370.5" y2="362.5"/><line style="stroke:#181818;stroke-width:1.0;" x1="397.66" x2="389.66" y1="370.5" y2="370.5"/></g><!--SRC=[bL4nRiCm39pDLmWU2sZf5r8Kw9QcIO2EhCK40cGfaEWXCFJtIbOQAx6NRkBno3kUoBBcgpW4yZjaRSzYX4PR5gM223GpSY-mpwnSldjDLfdhXygSaoO_qx_Su3lwpm0dmS2w2wi-_jPiND-d2MZUa6clUnBviNM1IQqjgnniyCBQsNjTBExeH9viHvy3ckIfmq9ws7-u68TgNM7hiisRssz23uromuyXSKGpq3oon_E4L9QMZ1M_4Q3wdlQb5L6AzhMT8frQGignSdJ3naMci0WvIbaFLhabZH9G3JxgJ9S_jzCDy1nEB7YvzXv3KiZaNm00]--></g></svg>